/* XPM */
static char *c128icon-32x28[] = {
/* columns rows colors chars-per-pixel */
"32 28 82 1",
"  c black",
". c #00C500C5026D",
"X c #023E00240092",
"o c #019701970502",
"O c #01F501F5062C",
"+ c #0233023306EC",
"@ c #02BB02BB08A4",
"# c #02EA02EA092E",
"$ c #044104410D66",
"% c #04F704F70FA5",
"& c #08520087021D",
"* c #0A6F00AA02A6",
"= c #0655065513F4",
"- c #0691069114AE",
"; c #07A307A317F7",
": c #07F307F31909",
"> c #094D094D1D51",
", c #099209921E27",
"< c #15B901610584",
"1 c #17F601860619",
"2 c #1A4D01AB06AE",
"3 c #0BDA0BDA252F",
"4 c #0FB30FB33174",
"5 c #30DD031A0C69",
"6 c #3A0603AF0EBC",
"7 c #1763176349AB",
"8 c #1BFE1BFE582D",
"9 c #1C321C3258D2",
"0 c #1F2F1F2F6212",
"q c #1F4A1F4A628F",
"w c #209C209C664A",
"e c #20BC20BC671C",
"r c #24AB24AB7392",
"t c #2520252074F2",
"y c #255925597568",
"u c #2557255775A1",
"i c #280728077DD9",
"p c #469A047B11EC",
"a c #47BB048B122D",
"s c #5091051D1476",
"d c #591C05A816A2",
"f c #5AF205C51719",
"g c #29462946820C",
"h c #29F629F68360",
"j c #301530159777",
"k c #308D308D98F3",
"l c #32FC32FCA09B",
"z c #33E133E1A36D",
"x c #350C350CA71A",
"c c #355B355BA814",
"v c #35B035B0A922",
"b c #36193619AA6C",
"n c #37CB37CBAF0A",
"m c #40294029C6CC",
"M c #40294029C949",
"N c #45594559DA7B",
"B c #49C249C2E808",
"V c #4B5D4B5DE808",
"C c #4AC54AC5EAD4",
"Z c #4CF44CF4F269",
"A c #4EEA4EEAF799",
"S c #4EEA4EEAF896",
"D c #4FFE4FFEF863",
"F c #4F2F4F2FF971",
"G c #503E503EFAFD",
"H c #50715071F971",
"J c #506B506BFB8B",
"K c #521F521FFB8B",
"L c #51445144FFFF",
"P c #51BC51BCFFFF",
"I c #52E252E2FFFF",
"U c #53725372FFFF",
"Y c #CBF70CF233CC",
"T c #D24F0D5A3569",
"R c #E2940E7C39EF",
"E c #E5DE0EC13B07",
"W c #E8070EC03B00",
"Q c #E8080EDE3B78",
"! c #E92F0ECE3B38",
"~ c #EB130EEC3BB3",
"^ c #FFFF106E41BB",
"/ c None",
/* pixels */
"/////////  #900009#/////////////",
"//////  -rbnSIIIGC://///////////",
"///// ,eNSIIIGGGIB://///////////",
"////+rMIIGIGGIIGIC://///////////",
"///+gAIIIGIIGGGIGC://///////////",
"// rIIGGGGGGIIGIGB://///////////",
"/ 3mIIIGGIIIIGIIIB-/////////////",
"/ qIGGIGGISNq9999z://///////////",
"/-NIGIGGIGi-     %           ///",
" 3CIIGGISg+////////%jxxxxbz4 ///",
" kIGIGGIn+/////////;VUIIIDh#////",
"+nIIGGIZ7 /////////:VUUIDg+/////",
"9SGIGIIB://////////%kbxbr+//////",
"0IGIGGGB://////////      ///////",
"0IGGIGIB-//////////&sddf6 //////",
"9SGIGIGC://////////2Q^^^Ra /////",
"+nIGGIIZ7 /////////1W^^^^Wa ////",
" kIIIGGIn+/////////1TWWWWWY5 ///",
" 3CGGGIGSg+//////// 1111112& ///",
"/-NIGIGGIIi-     % //      /    ",
"/ eIIGGIGISNq9999z:/            ",
"/ ,mIGIGIGIGGIIIIB:             ",
"// rGIGIIGGIIGGIIB-             ",
"///+hSIGGIGGGIGGIB://  /        ",
"////+rMIIIGIGIGIIB;//           ",
"///// ,eNDIIIGGIIC;//           ",
"//////  -rcnSGIGIB;//           ",
"/////////  #900008#//           "
};
